<?xml version="1.0" encoding="utf-8"?>
<!-- Generator: Adobe Illustrator 18.1.0, SVG Export Plug-In . SVG Version: 6.00 Build 0)  -->
<svg version="1.2" baseProfile="tiny" id="Layer_1" xmlns="http://www.w3.org/2000/svg" xmlns:xlink="http://www.w3.org/1999/xlink"
	 x="0px" y="0px" viewBox="0 0 1170 421" xml:space="preserve">
<linearGradient id="SVGID_1_" gradientUnits="userSpaceOnUse" x1="576.5064" y1="-220.5895" x2="576.5064" y2="598.5784">
	<stop  offset="0" style="stop-color:#0954A3"/>
	<stop  offset="5.508859e-02" style="stop-color:#185EA8"/>
	<stop  offset="0.1606" style="stop-color:#3E79B7"/>
	<stop  offset="0.3056" style="stop-color:#7DA4CE"/>
	<stop  offset="0.4827" style="stop-color:#D2DFEE"/>
	<stop  offset="0.5717" style="stop-color:#FFFFFF"/>
</linearGradient>
<path fill="url(#SVGID_1_)" d="M586.6,148.3c-3.9-3-7.8-3.9-14.8-3.9h-93.3c-10.3,0-19.3,3.9-23.2,10.3c-2.6,3.6-8.4,19.3-9.9,24.3
	c-1.5,6.4-18.3,46.4-18.3,48.6v1.9c0,6.9,9.3,14.2,17.4,14.2h99.2c9.3,0,18.7-4.9,21.7-11.4c3.6-7.5,6.4-16.3,9.3-23.5
	c1.9-5.8,18.7-45.8,18.7-47.8v-0.6C593.5,155.4,589.6,150.9,586.6,148.3z M538.2,171.8c0,2.6-10.8,26.7-12.3,31
	c-1.5,4.9-3.9,10.8-5.8,15.9c-1.9,5.4-4.9,9.3-12.3,9.3h-15.1c-4.5,0-9.9-3.6-9.9-7.8v-0.9h0.4v-0.4c0-3.6,10.3-28.8,12.3-32.9
	c1.9-5.4,4.5-10.8,6.4-16.3c1.9-5.4,6.4-9,14.2-9h12.9c3.9,0,9.3,3.9,9.3,7.5V171.8z M276.7,244h50.8c0.9-5.4,5.8-15.9,8.4-21.3
	c0.9-2.6,7.5-20.7,9-20.7h35.1l-16.3,41.3h52l38.1-99.2h-50.8l-16.3,41.3h-36.4l16.3-41.3h-50.8L276.7,244z M177.8,145.7
	c-3,1.9-6.4,1.9-9.9,5.4c-3.6,3-4.5,4.5-5.8,9c-3,7.5-5.8,14.2-8.4,21.7c-2.6,6.4-16.8,39.4-16.8,43.9v3.6
	c0,7.8,10.3,14.2,18.7,14.2h94.2c9.3,0,17.8-3,22.2-7.8c3-3.6,3.6-5.8,4.9-9.9c2.6-5.8,4.9-12,6.9-17.8h-51.4
	c-1.5,4.5-3.6,8.4-5.4,12.3c-0.6,1.5-1.5,2.6-1.9,3c-1.5,1.9-5.4,3.9-8.4,3.9h-16.3c-4.9,0-9.9-3.9-9.9-7.8c0-4.5,10.3-28,12.9-33.6
	c1.9-5.4,4.9-10.8,6.4-16.8c1.9-5.4,6.4-9.3,13.8-9.3h12.9c5.8,0,10.8,3.6,10.8,9v0.9c0,1.5-1.9,5.4-3,9.3h51.4
	c0.9-3.9,5.8-15.1,5.8-18.3v-1.9c0-3-4.5-8.4-6.4-9.9c-2.6-2.6-6.9-4.5-12-4.5h-92.1L177.8,145.7z M13,244h110.5l6.4-16.3H70.8
	L81,201.9h59.1l5.8-15.9H87.6c0.9-3.9,3.6-9.3,4.9-13.3c0.6-1.5,4.9-12.9,5.8-12.9H156l5.8-15.9H52.1L13,244z M599.5,162.1h74.6
	c4.5,0,9,3.9,9,9v0.6c0,3.9-9.3,24.7-11.4,30.7c-1.9,4.9-4.5,10.3-6.4,15.9c-1.9,4.9-4.9,10.3-12,10.3h-27.1l21.3-52.9h-52
	l-27.7,68.8c21.7,0,43,0,64.7,0c18.3,0,45.4,1.5,61.3-0.9c9-1.5,15.9-5.8,18.7-13.3c3-7.8,5.8-15.1,9.3-23.2
	c2.6-5.4,17.8-43.9,17.8-46.9v-0.6c0-3.9-4.5-9.3-6.9-11.4c-3.6-2.6-7.5-3.6-13.8-3.6H589.6C593.5,145.3,601,154.7,599.5,162.1z
	 M853.7,243.4h31l22.2-56.3l36.1,56.3h40.4c1.5,0,9.3-21.7,10.3-24.3c3.6-7.8,6.4-17.4,9.9-25.2c3.6-7.8,6.9-16.8,9.9-24.7
	c1.5-3.9,9.3-22.6,9.9-25.2h-33.3l-21.7,54.8c-3-0.6-34-54.8-36.1-54.8h-39.4L853.7,243.4z M990.9,244h110.5l6.4-16.3h-59.1
	c0.9-3.6,3.9-9.9,5.4-13.3c0.9-1.9,4.5-12.3,5.8-12.3h57.8l5.8-15.9h-58.1c0.9-3.6,3.9-9.3,4.9-12.9c0.6-1.9,4.5-12.9,5.8-12.9h57.8
	l6.4-15.9l-110.5-0.6L990.9,244z M743.2,157.1c4.5,7.8,9,15.1,12.9,23.5c4.9,9.3,13.3,23.2,13.3,24.3c0,0-14.2,36.4-15.1,39.1h52.9
	c0-1.5,9.9-27.1,11.4-30.7c3-7.5,1.5-8.4,7.8-13.3c0.6-0.6,0.9-0.9,1.5-0.9c3.6-2.6,6.4-5.4,9.9-7.8l53.3-46.9h-43.5l-45.4,38.1
	l-19.3-38.1h-52C736.1,146.2,739.7,150.7,743.2,157.1z"/>
<g>
</g>
<g>
</g>
<g>
</g>
<g>
</g>
<g>
</g>
<g>
</g>
</svg>
