<?xml version="1.0" encoding="utf-8"?>
<!-- Generator: Adobe Illustrator 18.0.0, SVG Export Plug-In . SVG Version: 6.00 Build 0)  -->
<!DOCTYPE svg PUBLIC "-//W3C//DTD SVG 1.1//EN" "http://www.w3.org/Graphics/SVG/1.1/DTD/svg11.dtd">
<svg version="1.1" id="Layer_1" xmlns="http://www.w3.org/2000/svg" xmlns:xlink="http://www.w3.org/1999/xlink" x="0px" y="0px"
	 viewBox="-7 387 626 78" enable-background="new -7 387 626 78" xml:space="preserve">
<g>
	<path fill="#0052A5" d="M226,444.6v1c0,3.7,5,7.6,9.3,7.6h53.1c5,0,10-2.6,11.6-6.1c1.9-4,3.4-8.7,5-12.6c1-3.1,10-24.5,10-25.6
		v-0.3c0-2.6-2.1-5-3.7-6.4c-2.1-1.6-4.2-2.1-7.9-2.1h-49.9c-5.5,0-10.3,2.1-12.4,5.5c-1.4,1.9-4.5,10.3-5.3,13
		C235,422,226,443.4,226,444.6L226,444.6z M255.9,440c0-1.9,5.5-15.4,6.6-17.6c1-2.9,2.4-5.8,3.4-8.7c1-2.9,3.4-4.8,7.6-4.8h6.9
		c2.1,0,5,2.1,5,4v1.9c0,1.4-5.8,14.3-6.6,16.6c-0.8,2.6-2.1,5.8-3.1,8.5c-1,2.9-2.6,5-6.6,5H261c-2.4,0-5.3-1.9-5.3-4.2v-0.5h0.2
		V440z"/>
	<path fill="#0052A5" d="M145.5,453.4h27.2c0.5-2.9,3.1-8.5,4.5-11.4c0.5-1.4,4-11.1,4.8-11.1h18.8l-8.7,22.1h27.8l20.4-53.1h-27.2
		l-8.7,22.1h-19.5l8.7-22.1h-27.2L145.5,453.4z"/>
	<path fill="#0052A5" d="M92.6,400.8c-1.6,1-3.4,1-5.3,2.9c-1.9,1.6-2.4,2.4-3.1,4.8c-1.6,4-3.1,7.6-4.5,11.6
		c-1.4,3.4-9,21.1-9,23.5v1.9c0,4.2,5.5,7.6,10,7.6h50.4c5,0,9.5-1.6,11.9-4.2c1.6-1.9,1.9-3.1,2.6-5.3c1.4-3.1,2.6-6.4,3.7-9.5
		h-27.5c-0.8,2.4-1.9,4.5-2.9,6.6c-0.3,0.8-0.8,1.4-1,1.6c-0.8,1-2.9,2.1-4.5,2.1h-8.7c-2.6,0-5.3-2.1-5.3-4.2c0-2.4,5.5-15,6.9-18
		c1-2.9,2.6-5.8,3.4-9c1-2.9,3.4-5,7.4-5h6.9c3.1,0,5.8,1.9,5.8,4.8v0.5c0,0.8-1,2.9-1.6,5h27.5c0.5-2.1,3.1-8.1,3.1-9.8v-1
		c0-1.6-2.4-4.5-3.4-5.3c-1.4-1.4-3.7-2.4-6.4-2.4H99.7L92.6,400.8z"/>
	<path fill="#0052A5" d="M4.4,453.4h59.1l3.4-8.7H35.3l5.5-13.8h31.6l3.1-8.5H44.3c0.5-2.1,1.9-5,2.6-7.1c0.3-0.8,2.6-6.9,3.1-6.9
		h30.9l3.1-8.5H25.3L4.4,453.4z"/>
	<path fill="#0052A5" d="M318.2,409.6h39.9c2.4,0,4.8,2.1,4.8,4.8v0.3c0,2.1-5,13.2-6.1,16.4c-1,2.6-2.4,5.5-3.4,8.5
		c-1,2.6-2.6,5.5-6.4,5.5h-14.5l11.4-28.3h-27.8l-14.8,36.8c11.6,0,23,0,34.6,0c9.8,0,24.3,0.8,32.8-0.5c4.8-0.8,8.5-3.1,10-7.1
		c1.6-4.2,3.1-8.1,5-12.4c1.4-2.9,9.5-23.5,9.5-25.1v-0.3c0-2.1-2.4-5-3.7-6.1c-1.9-1.4-4-1.9-7.4-1.9h-69.2
		C315,400.6,319,405.6,318.2,409.6z"/>
	<path fill="#0052A5" d="M454.2,453.1h16.6l11.9-30.1l19.3,30.1h21.6c0.8,0,5-11.6,5.5-13c1.9-4.2,3.4-9.3,5.3-13.5
		c1.9-4.2,3.7-9,5.3-13.2c0.8-2.1,5-12.1,5.3-13.5h-17.8l-11.6,29.3c-1.6-0.3-18.2-29.3-19.3-29.3h-21.1L454.2,453.1z"/>
	<path fill="#0052A5" d="M527.6,453.4h59.1l3.4-8.7h-31.6c0.5-1.9,2.1-5.3,2.9-7.1c0.5-1,2.4-6.6,3.1-6.6h30.9l3.1-8.5h-31.1
		c0.5-1.9,2.1-5,2.6-6.9c0.3-1,2.4-6.9,3.1-6.9h30.9l3.4-8.5l-59.1-0.3L527.6,453.4z"/>
	<path fill="#0052A5" d="M395.1,406.9c2.4,4.2,4.8,8.1,6.9,12.6c2.6,5,7.1,12.4,7.1,13c0,0-7.6,19.5-8.1,20.9h28.3
		c0-0.8,5.3-14.5,6.1-16.4c1.6-4,0.8-4.5,4.2-7.1c0.3-0.3,0.5-0.5,0.8-0.5c1.9-1.4,3.4-2.9,5.3-4.2l28.5-25.1h-23.3l-24.3,20.4
		l-10.3-20.4h-27.8C391.3,401.1,393.2,403.5,395.1,406.9z"/>
</g>
</svg>
